<?xml version="1.0" encoding="UTF-8"?>
<svg width="140px" height="145px" viewBox="0 0 140 145" version="1.1" xmlns="http://www.w3.org/2000/svg" xmlns:xlink="http://www.w3.org/1999/xlink">
    <!-- Generator: Sketch 46.2 (44496) - http://www.bohemiancoding.com/sketch -->
    <title>Page 1</title>
    <desc>Created with Sketch.</desc>
    <defs></defs>
    <g id="Page-1" stroke="none" stroke-width="1" fill="none" fill-rule="evenodd">
        <g id="Mobile" transform="translate(-449.000000, -572.000000)" fill="#000000">
            <path d="M575.486,639 L588.444,639 L588.444,635.5 L575.486,635.5 L575.486,639 Z M575.444,627.5 L588.402,627.5 L588.402,624 L575.444,624 L575.444,627.5 Z M557.944,684.528 L548.643,684.528 L544.423,695.604 L537.405,677.028 L528.504,692.895 L520.437,677.969 L509.288,694.486 L503.729,675.032 L497.928,683.733 L483.61,683.733 L483.61,680.733 L496.323,680.733 L504.832,667.969 L510.404,687.47 L520.721,672.186 L528.553,686.676 L537.937,669.948 L544.435,687.147 L546.575,681.528 L557.944,681.528 L557.944,684.528 Z M495.51,624 C501.222,624 505.852,628.63 505.852,634.342 C505.852,640.054 501.222,644.684 495.51,644.684 C489.798,644.684 485.168,640.054 485.168,634.342 C485.168,628.63 489.798,624 495.51,624 L495.51,624 Z M486.708,609.648 L504.935,614.784 L504.163,617.524 L485.937,612.388 L486.708,609.648 Z M541.81,624 C547.522,624 552.152,628.63 552.152,634.342 C552.152,640.054 547.522,644.684 541.81,644.684 C536.098,644.684 531.468,640.054 531.468,634.342 C531.468,628.63 536.098,624 541.81,624 L541.81,624 Z M551.496,609.648 L552.268,612.388 L534.042,617.524 L533.27,614.784 L551.496,609.648 Z M564,572 L473.5,572 L449,595.5 L449,624 L461.423,624 L461.423,627.5 L449,627.5 L449,635.5 L461.465,635.5 L461.465,639 L449,639 L449,693 L473.5,716.5 L564,716.5 L588.5,693 L588.5,595.5 L564,572 Z" id="Page-1"></path>
        </g>
    </g>
</svg>