<?xml version="1.0" encoding="UTF-8"?>
<svg width="620px" height="480px" viewBox="0 0 620 480" version="1.1" xmlns="http://www.w3.org/2000/svg" xmlns:xlink="http://www.w3.org/1999/xlink">
    <!-- Generator: Sketch 46.2 (44496) - http://www.bohemiancoding.com/sketch -->
    <title>Background 1</title>
    <desc>Created with Sketch.</desc>
    <defs>
        <rect id="path-1" x="0" y="0" width="620" height="480"></rect>
        <polygon id="path-3" points="0 510.918602 619.999 510.918602 619.999 0 0 0"></polygon>
    </defs>
    <g id="Page-1" stroke="none" stroke-width="1" fill="none" fill-rule="evenodd">
        <g id="Mobile-Copy-4">
            <g id="Background-1">
                <mask id="mask-2" fill="white">
                    <use xlink:href="#path-1"></use>
                </mask>
                <use id="Rectangle-2" fill="#3A6AE6" xlink:href="#path-1"></use>
                <g id="Group-104" mask="url(#mask-2)">
                    <g transform="translate(0.000000, -17.000000)">
                        <mask id="mask-4" fill="white">
                            <use xlink:href="#path-3"></use>
                        </mask>
                        <use id="Mask" stroke="none" fill="#3A6AE6" fill-rule="evenodd" xlink:href="#path-3"></use>
                        <path d="M244.188,463.4176 C252,463.4176 258.334,469.7506 258.334,477.5636 C258.334,485.3746 252,491.7086 244.188,491.7086 C236.376,491.7086 230.042,485.3746 230.042,477.5636 C230.042,469.7506 236.376,463.4176 244.188,463.4176" id="Fill-8" stroke="none" fill="#17215C" fill-rule="evenodd" mask="url(#mask-4)"></path>
                        <path d="M136.146,385 C143.958,385 150.292,391.333 150.292,399.146 C150.292,406.957 143.958,413.291 136.146,413.291 C128.334,413.291 122,406.957 122,399.146 C122,391.333 128.334,385 136.146,385" id="Fill-10" stroke="none" fill="#17215C" fill-rule="evenodd" mask="url(#mask-4)"></path>
                        <path d="M424.188,153.4176 C432,153.4176 438.334,159.7506 438.334,167.5626 C438.334,175.3756 432,181.7086 424.188,181.7086 C416.376,181.7086 410.042,175.3756 410.042,167.5626 C410.042,159.7506 416.376,153.4176 424.188,153.4176" id="Fill-14" stroke="none" fill="#17215C" fill-rule="evenodd" mask="url(#mask-4)"></path>
                        <path d="M421.188,253.4176 C429,253.4176 435.334,259.7506 435.334,267.5626 C435.334,275.3756 429,281.7086 421.188,281.7086 C413.376,281.7086 407.042,275.3756 407.042,267.5626 C407.042,259.7506 413.376,253.4176 421.188,253.4176" id="Fill-16" stroke="none" fill="#17215C" fill-rule="evenodd" mask="url(#mask-4)"></path>
                        <path d="M587.8545,15.7506 C595.6665,15.7506 602.0005,22.0836 602.0005,29.8966 C602.0005,37.7086 595.6665,44.0416 587.8545,44.0416 C580.0425,44.0416 573.7095,37.7086 573.7095,29.8966 C573.7095,22.0836 580.0425,15.7506 587.8545,15.7506" id="Fill-26" stroke="none" fill="#17215C" fill-rule="evenodd" mask="url(#mask-4)"></path>
                        <path d="M235,379.7506 C238.769,379.7506 241.825,382.8066 241.825,386.5756 C241.825,390.3446 238.769,393.3996 235,393.3996 C231.231,393.3996 228.175,390.3446 228.175,386.5756 C228.175,382.8066 231.231,379.7506 235,379.7506" id="Fill-30" stroke="none" fill="#17215C" fill-rule="evenodd" mask="url(#mask-4)"></path>
                        <path d="M78,418.7506 C81.769,418.7506 84.825,421.8066 84.825,425.5756 C84.825,429.3446 81.769,432.3996 78,432.3996 C74.231,432.3996 71.175,429.3446 71.175,425.5756 C71.175,421.8066 74.231,418.7506 78,418.7506" id="Fill-32" stroke="none" fill="#17215C" fill-rule="evenodd" mask="url(#mask-4)"></path>
                        <path d="M151.825,179 C155.594,179 158.65,182.056 158.65,185.825 C158.65,189.594 155.594,192.649 151.825,192.649 C148.056,192.649 145,189.594 145,185.825 C145,182.056 148.056,179 151.825,179" id="Fill-34" stroke="none" fill="#17215C" fill-rule="evenodd" mask="url(#mask-4)"></path>
                        <path d="M270,90.4001 C273.769,90.4001 276.825,93.4561 276.825,97.2251 C276.825,100.9941 273.769,104.0491 270,104.0491 C266.231,104.0491 263.175,100.9941 263.175,97.2251 C263.175,93.4561 266.231,90.4001 270,90.4001" id="Fill-36" stroke="none" fill="#17215C" fill-rule="evenodd" mask="url(#mask-4)"></path>
                        <path d="M355,356.7506 C358.769,356.7506 361.825,359.8066 361.825,363.5756 C361.825,367.3446 358.769,370.3996 355,370.3996 C351.231,370.3996 348.175,367.3446 348.175,363.5756 C348.175,359.8066 351.231,356.7506 355,356.7506" id="Fill-40" stroke="none" fill="#17215C" fill-rule="evenodd" mask="url(#mask-4)"></path>
                        <path d="M486.8247,431.5758 C490.5937,431.5758 493.6497,434.6308 493.6497,438.3998 C493.6497,442.1698 490.5937,445.2238 486.8247,445.2238 C483.0557,445.2238 479.9997,442.1698 479.9997,438.3998 C479.9997,434.6308 483.0557,431.5758 486.8247,431.5758" id="Fill-42" stroke="none" fill="#17215C" fill-rule="evenodd" mask="url(#mask-4)"></path>
                        <path d="M504,150.4001 C507.769,150.4001 510.825,153.4561 510.825,157.2251 C510.825,160.9941 507.769,164.0491 504,164.0491 C500.231,164.0491 497.175,160.9941 497.175,157.2251 C497.175,153.4561 500.231,150.4001 504,150.4001" id="Fill-44" stroke="none" fill="#17215C" fill-rule="evenodd" mask="url(#mask-4)"></path>
                        <path d="M564.8247,443.5758 C568.5937,443.5758 571.6497,446.6308 571.6497,450.3998 C571.6497,454.1698 568.5937,457.2238 564.8247,457.2238 C561.0557,457.2238 557.9997,454.1698 557.9997,450.3998 C557.9997,446.6308 561.0557,443.5758 564.8247,443.5758" id="Fill-46" stroke="none" fill="#17215C" fill-rule="evenodd" mask="url(#mask-4)"></path>
                        <path d="M341,460.4001 C344.769,460.4001 347.825,463.4561 347.825,467.2241 C347.825,470.9941 344.769,474.0491 341,474.0491 C337.231,474.0491 334.175,470.9941 334.175,467.2241 C334.175,463.4561 337.231,460.4001 341,460.4001" id="Fill-48" stroke="none" fill="#17215C" fill-rule="evenodd" mask="url(#mask-4)"></path>
                        <path d="M195,296.7506 C198.769,296.7506 201.825,299.8066 201.825,303.5756 C201.825,307.3446 198.769,310.3996 195,310.3996 C191.231,310.3996 188.175,307.3446 188.175,303.5756 C188.175,299.8066 191.231,296.7506 195,296.7506" id="Fill-50" stroke="none" fill="#17215C" fill-rule="evenodd" mask="url(#mask-4)"></path>
                        <path d="M346,276.4001 C349.769,276.4001 352.825,279.4561 352.825,283.2251 C352.825,286.9941 349.769,290.0491 346,290.0491 C342.231,290.0491 339.175,286.9941 339.175,283.2251 C339.175,279.4561 342.231,276.4001 346,276.4001" id="Fill-52" stroke="none" fill="#17215C" fill-rule="evenodd" mask="url(#mask-4)"></path>
                        <path d="M60.2544,322.5666 C63.4324,322.5666 66.0084,325.1426 66.0084,328.3206 C66.0084,331.4996 63.4324,334.0756 60.2544,334.0756 C57.0764,334.0756 54.5004,331.4996 54.5004,328.3206 C54.5004,325.1426 57.0764,322.5666 60.2544,322.5666" id="Fill-54" stroke="none" fill="#17215C" fill-rule="evenodd" mask="url(#mask-4)"></path>
                        <path d="M255,262.4001 C258.178,262.4001 260.754,264.9761 260.754,268.1541 C260.754,271.3331 258.178,273.9091 255,273.9091 C251.822,273.9091 249.246,271.3331 249.246,268.1541 C249.246,264.9761 251.822,262.4001 255,262.4001" id="Fill-56" stroke="none" fill="#17215C" fill-rule="evenodd" mask="url(#mask-4)"></path>
                        <path d="M42.7544,153.6457 C45.9324,153.6457 48.5094,156.2217 48.5094,159.3997 C48.5094,162.5787 45.9324,165.1547 42.7544,165.1547 C39.5764,165.1547 37.0004,162.5787 37.0004,159.3997 C37.0004,156.2217 39.5764,153.6457 42.7544,153.6457" id="Fill-58" stroke="none" fill="#17215C" fill-rule="evenodd" mask="url(#mask-4)"></path>
                        <path d="M157.7544,96.6457 C160.9324,96.6457 163.5094,99.2217 163.5094,102.3997 C163.5094,105.5787 160.9324,108.1547 157.7544,108.1547 C154.5764,108.1547 152.0004,105.5787 152.0004,102.3997 C152.0004,99.2217 154.5764,96.6457 157.7544,96.6457" id="Fill-60" stroke="none" fill="#17215C" fill-rule="evenodd" mask="url(#mask-4)"></path>
                        <path d="M423,33.4001 C426.178,33.4001 428.754,35.9761 428.754,39.1541 C428.754,42.3331 426.178,44.9091 423,44.9091 C419.822,44.9091 417.246,42.3331 417.246,39.1541 C417.246,35.9761 419.822,33.4001 423,33.4001" id="Fill-62" stroke="none" fill="#17215C" fill-rule="evenodd" mask="url(#mask-4)"></path>
                        <path d="M555,76.8908 C558.178,76.8908 560.754,79.4678 560.754,82.6458 C560.754,85.8238 558.178,88.3998 555,88.3998 C551.822,88.3998 549.246,85.8238 549.246,82.6458 C549.246,79.4678 551.822,76.8908 555,76.8908" id="Fill-64" stroke="none" fill="#17215C" fill-rule="evenodd" mask="url(#mask-4)"></path>
                        <path d="M573.2456,173.6457 C576.4236,173.6457 578.9996,176.2217 578.9996,179.3997 C578.9996,182.5787 576.4236,185.1547 573.2456,185.1547 C570.0676,185.1547 567.4906,182.5787 567.4906,179.3997 C567.4906,176.2217 570.0676,173.6457 573.2456,173.6457" id="Fill-66" stroke="none" fill="#17215C" fill-rule="evenodd" mask="url(#mask-4)"></path>
                        <path d="M538.5337,313.7506 C542.3037,313.7506 545.3587,316.8066 545.3587,320.5756 C545.3587,324.3446 542.3037,327.3996 538.5337,327.3996 C534.7647,327.3996 531.7097,324.3446 531.7097,320.5756 C531.7097,316.8066 534.7647,313.7506 538.5337,313.7506" id="Fill-74" stroke="none" fill="#17215C" fill-rule="evenodd" mask="url(#mask-4)"></path>
                        <path d="M500.2139,401.2809 C502.1209,401.2809 503.6669,402.8269 503.6669,404.7329 C503.6669,406.6399 502.1209,408.1859 500.2139,408.1859 C498.3069,408.1859 496.7609,406.6399 496.7609,404.7329 C496.7609,402.8269 498.3069,401.2809 500.2139,401.2809" id="Fill-78" stroke="none" fill="#17215C" fill-rule="evenodd" mask="url(#mask-4)"></path>
                        <path d="M522,32.4001 C523.907,32.4001 525.453,33.9461 525.453,35.8531 C525.453,37.7601 523.907,39.3051 522,39.3051 C520.093,39.3051 518.547,37.7601 518.547,35.8531 C518.547,33.9461 520.093,32.4001 522,32.4001" id="Fill-80" stroke="none" fill="#17215C" fill-rule="evenodd" mask="url(#mask-4)"></path>
                        <path d="M235,156.4001 C236.907,156.4001 238.453,157.9461 238.453,159.8531 C238.453,161.7601 236.907,163.3051 235,163.3051 C233.093,163.3051 231.547,161.7601 231.547,159.8531 C231.547,157.9461 233.093,156.4001 235,156.4001" id="Fill-82" stroke="none" fill="#17215C" fill-rule="evenodd" mask="url(#mask-4)"></path>
                        <path d="M116.1909,290.9928 C118.0979,290.9928 119.6439,292.5378 119.6439,294.4458 C119.6439,296.3518 118.0979,297.8978 116.1909,297.8978 C114.2839,297.8978 112.7379,296.3518 112.7379,294.4458 C112.7379,292.5378 114.2839,290.9928 116.1909,290.9928" id="Fill-84" stroke="none" fill="#17215C" fill-rule="evenodd" mask="url(#mask-4)"></path>
                        <path d="M295,306.4948 C296.907,306.4948 298.453,308.0398 298.453,309.9478 C298.453,311.8538 296.907,313.3998 295,313.3998 C293.093,313.3998 291.547,311.8538 291.547,309.9478 C291.547,308.0398 293.093,306.4948 295,306.4948" id="Fill-86" stroke="none" fill="#17215C" fill-rule="evenodd" mask="url(#mask-4)"></path>
                        <path d="M310,381.4948 C311.907,381.4948 313.453,383.0408 313.453,384.9468 C313.453,386.8538 311.907,388.3998 310,388.3998 C308.093,388.3998 306.547,386.8538 306.547,384.9468 C306.547,383.0408 308.093,381.4948 310,381.4948" id="Fill-88" stroke="none" fill="#17215C" fill-rule="evenodd" mask="url(#mask-4)"></path>
                        <path d="M405.5474,418.9469 C407.4544,418.9469 409.0004,420.4929 409.0004,422.3999 C409.0004,424.3069 407.4544,425.8529 405.5474,425.8529 C403.6404,425.8529 402.0944,424.3069 402.0944,422.3999 C402.0944,420.4929 403.6404,418.9469 405.5474,418.9469" id="Fill-90" stroke="none" fill="#17215C" fill-rule="evenodd" mask="url(#mask-4)"></path>
                        <path d="M422.5474,367.9469 C424.4544,367.9469 426.0004,369.4929 426.0004,371.3999 C426.0004,373.3069 424.4544,374.8529 422.5474,374.8529 C420.6404,374.8529 419.0944,373.3069 419.0944,371.3999 C419.0944,369.4929 420.6404,367.9469 422.5474,367.9469" id="Fill-92" stroke="none" fill="#17215C" fill-rule="evenodd" mask="url(#mask-4)"></path>
                        <path d="M31,428.4001 C32.907,428.4001 34.453,429.9461 34.453,431.8531 C34.453,433.7591 32.907,435.3051 31,435.3051 C29.093,435.3051 27.547,433.7591 27.547,431.8531 C27.547,429.9461 29.093,428.4001 31,428.4001" id="Fill-94" stroke="none" fill="#17215C" fill-rule="evenodd" mask="url(#mask-4)"></path>
                        <path d="M343.5474,117.9474 C345.4544,117.9474 347.0004,119.4934 347.0004,121.4004 C347.0004,123.3064 345.4544,124.8524 343.5474,124.8524 C341.6404,124.8524 340.0944,123.3064 340.0944,121.4004 C340.0944,119.4934 341.6404,117.9474 343.5474,117.9474" id="Fill-96" stroke="none" fill="#17215C" fill-rule="evenodd" mask="url(#mask-4)"></path>
                        <path d="M459.5474,101.9474 C461.4544,101.9474 463.0004,103.4934 463.0004,105.4004 C463.0004,107.3064 461.4544,108.8524 459.5474,108.8524 C457.6404,108.8524 456.0944,107.3064 456.0944,105.4004 C456.0944,103.4934 457.6404,101.9474 459.5474,101.9474" id="Fill-98" stroke="none" fill="#17215C" fill-rule="evenodd" mask="url(#mask-4)"></path>
                        <path d="M497.781444,896.17438 L502.675444,891.27938 L506.591444,886.75238 C506.902444,886.53138 507.155444,886.23638 507.325444,885.89638 L514.300444,877.94138 C516.870444,874.76038 519.439444,871.57938 521.887444,868.27438 C524.334444,864.97138 526.781444,861.54538 529.106444,858.11938 C534.930444,849.61438 540.203444,840.74538 544.891444,831.56538 C549.589444,822.34038 553.676444,812.81638 557.127444,803.05538 L557.127444,802.44338 C558.473444,798.65038 559.697444,794.98038 560.920444,791.06438 C563.624444,782.42838 565.830444,773.64438 567.528444,764.75638 C568.262444,761.08538 568.874444,757.53638 569.486444,753.86538 C570.098444,750.19438 570.709444,745.42238 571.077444,741.62938 C571.443444,737.83638 571.810444,733.67538 571.933444,729.39338 C572.056444,725.11038 571.933444,719.97138 571.933444,715.19838 C571.912444,629.83338 529.499444,550.05038 458.747444,502.28638 C456.177444,500.57338 453.730444,498.86038 451.038444,497.27038 C402.377444,467.17638 345.038444,454.25238 288.172444,460.56138 L281.075444,461.41738 C278.139444,461.41738 275.202444,462.15138 272.388444,462.76338 C271.022444,462.88938 269.671444,463.13438 268.349444,463.49738 C265.412444,463.49738 262.476444,464.47638 259.662444,465.21038 L253.911444,466.55638 L247.425444,468.27038 L239.839444,470.35038 C231.518444,472.91938 223.442444,475.97838 215.366444,479.28238 C212.062444,480.62838 208.759444,482.09638 205.577444,483.68738 C202.396444,485.27738 200.682444,486.01238 198.235444,487.35838 C195.788444,488.70438 192.851444,490.05038 190.282444,491.51938 C187.712444,492.98638 184.408444,494.82238 181.594444,496.65738 C178.780444,498.49338 175.965444,500.20638 173.151444,502.04138 C160.866444,510.14038 149.356444,519.35738 138.767444,529.57338 C136.802444,531.27338 134.923444,533.06938 133.138444,534.95738 C130.365444,537.81338 127.672444,540.62738 125.062444,543.40138 L119.923444,549.27438 L115.273444,554.90238 C112.703444,558.08438 110.134444,561.38838 107.809444,564.69238 C105.484444,567.99538 103.282444,571.05538 101.079444,574.35938 C98.8764444,577.66238 97.5304444,579.86438 95.8174444,582.67938 C89.5154444,592.97938 83.9934444,603.73538 79.2984444,614.86038 L75.6274444,624.03838 C74.2814444,627.58638 72.9354444,631.25738 71.7124444,634.80638 L68.7754444,644.10638 C67.9184444,647.16438 67.0624444,650.22438 66.3284444,653.40438 C65.5944444,656.58638 64.8594444,659.27838 64.2474444,662.21538 C63.1464444,667.47738 62.1674444,672.73838 61.3114444,678.24438 C61.3114444,681.67138 60.4544444,685.22038 60.0874444,688.76838 C60.0114444,689.13138 60.0114444,689.50638 60.0874444,689.86938 C60.0874444,694.02938 59.3534444,698.31338 59.1084444,702.10638 C58.8644444,705.89938 59.1084444,710.91638 59.1084444,715.32038 L59.1084444,728.53638 C59.4474444,736.52638 60.2234444,744.49138 61.4334444,752.39738 C61.6404444,754.37338 61.9674444,756.33438 62.4124444,758.27138 C62.4124444,761.20738 63.3914444,764.14438 64.0034444,767.08038 C64.6154444,770.01838 65.5944444,774.66738 66.5724444,778.46038 C67.5514444,782.25438 68.4084444,785.31338 69.3874444,788.73838 C70.3664444,792.16538 70.6104444,792.77638 71.3454444,794.85738 C72.0784444,796.93838 71.3454444,796.93838 72.3244444,797.91638 L73.7924444,802.07638 C74.1664444,803.28638 74.6164444,804.47138 75.1384444,805.62538 C76.2804444,808.72538 77.5034444,811.78438 78.8084444,814.80238 C78.7564444,815.04438 78.7564444,815.29538 78.8084444,815.53638 C80.3994444,819.20738 82.1134444,822.87838 83.8264444,826.54938 C85.5384444,830.22038 87.4964444,834.01438 89.4544444,837.56238 C91.4124444,841.11038 93.1254444,844.29238 95.0834444,847.47438 C97.0414444,850.77738 99.1214444,853.95838 101.201444,857.14038 C103.282444,860.32138 106.463444,864.72738 109.155444,868.39838 C111.847444,872.06838 113.927444,874.63838 116.496444,877.69738 C119.066444,880.75638 121.758444,883.93838 124.573444,886.99638 C127.387444,890.05638 129.712444,892.50338 132.404444,895.19538 L133.627444,896.54138 C139.134444,902.04738 144.885444,907.18738 150.881444,912.20338 L160.914444,920.03438 C164.218444,922.60538 167.644444,924.92938 171.071444,927.25438 C174.497444,929.57938 177.923444,931.78138 181.472444,933.86138 C185.020444,935.94138 188.079444,937.89938 191.505444,939.73538 L198.358444,943.28338 L202.151444,945.24138 L205.210444,946.71038 L212.919444,950.13638 C215.978444,951.60538 219.160444,952.82838 222.463444,954.05238 C225.767444,955.27538 228.459444,956.37738 231.518444,957.35638 L233.109444,957.35638 C236.168444,958.45738 239.349444,959.43638 242.531444,960.29238 L245.345444,961.14938 L251.586444,962.86138 L255.134444,962.86138 C257.268444,963.46938 259.433444,963.95938 261.620444,964.33038 C265.046444,965.18738 268.472444,965.79938 271.898444,966.41038 L280.341444,967.75638 C281.480444,967.88338 282.629444,967.88338 283.767444,967.75638 C286.827444,967.75638 290.008444,968.49038 293.067444,968.85738 C296.126444,969.22538 299.919444,968.85738 303.468444,969.59238 C307.016444,970.32638 312.156444,969.59238 316.560444,969.59238 L329.776444,969.59238 C334.181444,969.59238 338.341444,969.59238 342.012444,968.61238 L343.114444,968.61238 L353.637444,967.38938 C359.021444,966.53238 364.405444,965.55438 369.666444,964.45238 L378.109444,962.49438 L387.164444,960.04738 L396.953444,956.98838 L407.722444,953.07238 L415.920444,949.89238 C423.685444,947.01638 431.284444,943.70738 438.679444,939.98038 C442.105444,938.14538 445.532444,936.18738 448.835444,934.10738 C452.139444,932.02638 455.810444,929.82338 459.236444,927.49938 C460.589444,926.67238 461.896444,925.77438 463.152444,924.80738 L467.068444,922.23738 L469.392444,920.27938 C472.696444,917.83238 475.878444,915.38538 479.059444,912.69238 C484.958444,907.98838 490.596444,902.96438 495.945444,897.64238 L497.781444,896.17438 Z" id="Path" stroke="none" fill="#17215C" fill-rule="evenodd" mask="url(#mask-4)"></path>
                    </g>
                </g>
                <path d="M77.9233408,198.869466 L86.0058094,200.695723 C87.3313969,201.059896 87.3313969,202.940104 86.0058094,203.304816 L77.9233408,205.131073 C77.2435523,205.297244 76.7121304,205.768779 76.5254583,206.372496 L74.3048161,215.005809 C73.9406438,216.331397 72.0604353,216.331397 71.6957234,215.005809 L69.4750812,206.372496 C69.2884091,205.768779 68.7569872,205.296704 68.0771988,205.131073 L59.9941906,203.304277 C58.6686031,202.940104 58.6686031,201.059896 59.9941906,200.695184 L68.0766592,198.868927 C68.7564477,198.702756 69.2878696,198.231221 69.4745417,197.627504 L71.6951839,188.994191 C72.0593562,187.668603 73.9395647,187.668603 74.3042766,188.994191 L76.5249188,197.627504 C76.7121304,198.23176 77.2435523,198.703296 77.9233408,198.869466 Z" id="Shape" fill="#17215C" fill-rule="nonzero" mask="url(#mask-2)"></path>
                <path d="M127.137504,67.8229284 L131.467398,68.8012804 C132.177534,68.9963727 132.177534,70.0036273 131.467398,70.1990086 L127.137504,71.1773606 C126.773332,71.2663805 126.488641,71.518989 126.388638,71.8424087 L125.199009,76.4673979 C125.003916,77.177534 123.996662,77.177534 123.80128,76.4673979 L122.611651,71.8424087 C122.511648,71.518989 122.226957,71.2660915 121.862785,71.1773606 L117.532602,70.1987196 C116.822466,70.0036273 116.822466,68.9963727 117.532602,68.8009914 L121.862496,67.8226394 C122.226668,67.7336195 122.511359,67.481011 122.611362,67.1575913 L123.800991,62.5326021 C123.996084,61.822466 125.003338,61.822466 125.19872,62.5326021 L126.388349,67.1575913 C126.488641,67.4813 126.773332,67.7339085 127.137504,67.8229284 Z" id="Shape-Copy-2" fill="#17215C" fill-rule="nonzero" mask="url(#mask-2)"></path>
                <path d="M522.923341,226.869466 L531.005809,228.695723 C532.331397,229.059896 532.331397,230.940104 531.005809,231.304816 L522.923341,233.131073 C522.243552,233.297244 521.71213,233.768779 521.525458,234.372496 L519.304816,243.005809 C518.940644,244.331397 517.060435,244.331397 516.695723,243.005809 L514.475081,234.372496 C514.288409,233.768779 513.756987,233.296704 513.077199,233.131073 L504.994191,231.304277 C503.668603,230.940104 503.668603,229.059896 504.994191,228.695184 L513.076659,226.868927 C513.756448,226.702756 514.28787,226.231221 514.474542,225.627504 L516.695184,216.994191 C517.059356,215.668603 518.939565,215.668603 519.304277,216.994191 L521.524919,225.627504 C521.71213,226.23176 522.243552,226.703296 522.923341,226.869466 Z" id="Shape-Copy" fill="#17215C" fill-rule="nonzero" mask="url(#mask-2)"></path>
                <path d="M543.489171,384.599319 L548.396384,385.708118 C549.201205,385.929222 549.201205,387.070778 548.396384,387.29221 L543.489171,388.401009 C543.076442,388.501898 542.753793,388.788188 542.640457,389.15473 L541.29221,394.396384 C541.071105,395.201205 539.92955,395.201205 539.708118,394.396384 L538.359871,389.15473 C538.246534,388.788188 537.923885,388.50157 537.511156,388.401009 L532.603616,387.291882 C531.798795,387.070778 531.798795,385.929222 532.603616,385.70779 L537.510829,384.598991 C537.923558,384.498102 538.246207,384.211812 538.359543,383.84527 L539.70779,378.603616 C539.928895,377.798795 541.07045,377.798795 541.291882,378.603616 L542.640129,383.84527 C542.753793,384.21214 543.076442,384.49843 543.489171,384.599319 Z" id="Shape-Copy" fill="#17215C" fill-rule="nonzero" mask="url(#mask-2)"></path>
            </g>
        </g>
    </g>
</svg>