<?xml version="1.0" encoding="UTF-8"?>
<svg width="620px" height="480px" viewBox="0 0 620 480" version="1.1" xmlns="http://www.w3.org/2000/svg" xmlns:xlink="http://www.w3.org/1999/xlink">
    <!-- Generator: Sketch 46.2 (44496) - http://www.bohemiancoding.com/sketch -->
    <title>Group 8</title>
    <desc>Created with Sketch.</desc>
    <defs>
        <rect id="path-1" x="0" y="0" width="620" height="580"></rect>
        <polygon id="path-3" points="0 61.7669 56.58 61.7669 56.58 0.9999 0 0.9999"></polygon>
        <polygon id="path-5" points="0 75 70 75 70 0 0 0"></polygon>
    </defs>
    <g id="Page-1" stroke="none" stroke-width="1" fill="none" fill-rule="evenodd">
        <g id="Mobile-Copy-4">
            <g id="Group-8" transform="translate(-194.000000, -100.000000)">
                <g id="Group-11">
                    <g id="Group-6" transform="translate(194.000000, 0.000000)">
                        <mask id="mask-2" fill="white">
                            <use xlink:href="#path-1"></use>
                        </mask>
                        <use id="Rectangle-2" fill="#7A67F9" xlink:href="#path-1"></use>
                        <g id="Page-1" mask="url(#mask-2)" fill="#372E71">
                            <g transform="translate(109.000000, 486.000000)">
                                <polygon id="Fill-1" points="0 0 32.3605302 90.1339017 47.839433 107 84.799595 66.5440195 114.044772 106.350682 150.238328 66.7462994 179.499816 104.046713 216.753571 63.489593 218.807095 66.4024236 252.359941 102.954402 289.336414 62.4984215 318.581591 102.305083 354.775147 62.7007014 384.036635 100.001115 411.789378 69.7724068 443 0"></polygon>
                                <polygon id="Fill-2" points="252.821492 101.088982 216.875491 61.7314766 179.538599 102.531617 150.267887 65.0840778 113.897435 105.051147 84.6250903 65.063759 48.1224061 105.152741 39 95.1680855 47.5249113 119 384.716008 119 403 77.9804169 384.254011 98.4678578 354.984931 61.0203188 318.594889 100.98942 289.325809 61"></polygon>
                            </g>
                        </g>
                    </g>
                    <polygon id="Fill-1" fill="#372E71" points="713 506.72657 742 533 736.03391 519.192112 717.037549 502"></polygon>
                    <polygon id="Fill-2" fill="#372E71" points="982.525879 498 947.052841 529.457315 914.865792 501.035479 912.892634 498.770666 877.155152 530.30662 849.083414 501.304426 814.361459 532.098025 786.305368 501.147147 750.847978 532.601317 736 519.487418 742.104117 533.271324 750.847978 541 785.835941 509.96891 813.892032 540.922933 848.754815 509.984638 876.810905 538.971105 912.596895 507.389539 947.052841 537.854426 982.039239 506.824909 1010.09689 537.775786 1044.97689 506.839064 1073.02985 535.82553 1090.99952 519.965545 1100 503.657315 1073.37566 527.159473 1045.30392 498.158851 1010.58197 528.952451"></polygon>
                    <polygon id="Fill-2" fill="#372E71" points="269.525879 509 234.052841 540.457315 201.865792 512.035479 199.892634 509.770666 164.155152 541.30662 136.083414 512.304426 101.361459 543.098025 73.3053683 512.147147 37.8479779 543.601317 23 530.487418 29.1041165 544.271324 37.8479779 552 72.8359413 520.96891 100.892032 551.922933 135.754815 520.984638 163.810905 549.971105 199.596895 518.389539 234.052841 548.854426 269.039239 517.824909 297.096895 548.775786 331.97689 517.839064 360.029851 546.82553 377.999519 530.965545 387 514.657315 360.375662 538.159473 332.303924 509.158851 297.581969 539.952451"></polygon>
                    <polygon id="Page-1" fill="#372E71" transform="translate(302.487492, 365.350000) scale(-1, 1) translate(-302.487492, -365.350000) " points="256 211 256 519.7 263.683883 519.7 263.683883 276.313006 348.974984 276.313006 320.544617 243.656503 348.974984 211"></polygon>
                    <g id="Page-1" transform="translate(699.000000, 349.000000)">
                        <g id="Group-3" transform="translate(0.000000, 0.766900)" fill="#372E71">
                            <path d="M45.6699,0.2332 C39.6459,0.2382 34.7609,5.1182 34.7499,11.1432 L38.7499,11.1432 C38.7499,7.3272 41.8439,4.2332 45.6599,4.2332 C49.4769,4.2332 52.5699,7.3272 52.5699,11.1432 C52.5699,14.9592 49.4769,18.0532 45.6599,18.0532 L-0.0001,18.0532 L-0.0001,22.0532 L46.3799,22.0532 C52.3889,21.6092 56.8999,16.3792 56.4569,10.3692 C56.0389,4.7072 51.3479,0.3112 45.6699,0.2632 L45.6699,0.2332 Z" id="Fill-1"></path>
                        </g>
                        <mask id="mask-4" fill="white">
                            <use xlink:href="#path-3"></use>
                        </mask>
                        <g id="Clip-5"></g>
                        <polygon id="Fill-4" fill="#372E71" mask="url(#mask-4)" points="5.07 33.4499 53.38 33.4499 53.38 29.4499 5.07 29.4499"></polygon>
                        <path d="M46.3799,39.9699 L46.3799,39.9699 L-0.0001,39.9699 L-0.0001,43.9699 L45.6699,43.9699 C49.4859,43.9699 52.5799,47.0639 52.5799,50.8799 C52.5799,54.6969 49.4859,57.7899 45.6699,57.7899 C41.8539,57.7899 38.7599,54.6969 38.7599,50.8799 L34.7599,50.8799 C34.7729,56.9059 39.6679,61.7799 45.6929,61.7669 C51.7189,61.7539 56.5929,56.8599 56.5799,50.8339 C56.5679,45.0929 52.1089,40.3439 46.3799,39.9699" id="Fill-6" fill="#372E71" mask="url(#mask-4)"></path>
                    </g>
                    <g id="Page-1" transform="translate(286.500000, 402.500000) scale(-1, -1) translate(-286.500000, -402.500000) translate(251.000000, 365.000000)">
                        <g id="Group-3" fill="#372E71">
                            <path d="M56.8870684,0.294034783 C49.3834895,0.30033913 43.2986649,6.45338261 43.2849632,14.0501217 L48.2674193,14.0501217 C48.2674193,9.23864348 52.1213491,5.33751304 56.8746123,5.33751304 C61.6291211,5.33751304 65.4818053,9.23864348 65.4818053,14.0501217 C65.4818053,18.8616 61.6291211,22.7627304 56.8746123,22.7627304 L-0.000124561404,22.7627304 L-0.000124561404,27.8062087 L57.7714544,27.8062087 C65.2563491,27.2463826 70.875314,20.6520348 70.323507,13.0742087 C69.8028404,5.93516522 63.9596649,0.392382609 56.8870684,0.33186087 L56.8870684,0.294034783 Z" id="Fill-1"></path>
                        </g>
                        <mask id="mask-6" fill="white">
                            <use xlink:href="#path-5"></use>
                        </mask>
                        <g id="Clip-5"></g>
                        <polygon id="Fill-4" fill="#372E71" mask="url(#mask-6)" points="6 41 66 41 66 36 6 36"></polygon>
                        <path d="M57.3806736,49 L57.3806736,49 L0,49 L0,53.9548044 L56.5022717,53.9548044 C61.2233724,53.9548044 65.051225,57.7873456 65.051225,62.514229 C65.051225,67.2423511 61.2233724,71.0736536 56.5022717,71.0736536 C51.781171,71.0736536 47.9533184,67.2423511 47.9533184,62.514229 L43.0045755,62.514229 C43.020659,69.9786418 49.076683,76.016071 56.530727,75.9999679 C63.9860081,75.9838647 70.0160513,69.9216616 69.9999679,62.4572487 C69.9851217,55.3458657 64.4685106,49.4632742 57.3806736,49" id="Fill-6" fill="#372E71" mask="url(#mask-6)"></path>
                    </g>
                    <rect id="Rectangle-5" fill="#7A67F9" x="314" y="539" width="427" height="9"></rect>
                    <g id="Page-1-Copy" transform="translate(0.000000, 509.000000)"></g>
                </g>
            </g>
        </g>
    </g>
</svg>