<?xml version="1.0" encoding="UTF-8"?>
<svg width="178px" height="152px" viewBox="0 0 178 152" version="1.1" xmlns="http://www.w3.org/2000/svg" xmlns:xlink="http://www.w3.org/1999/xlink">
    <!-- Generator: Sketch 46.2 (44496) - http://www.bohemiancoding.com/sketch -->
    <title>Page 1</title>
    <desc>Created with Sketch.</desc>
    <defs>
        <polygon id="path-1" points="21.4790495 10.8571429 0.212834409 10.8571429 0.212834409 0.212991597 21.4790495 0.212991597"></polygon>
        <polygon id="path-3" points="0.550141219 0.326991597 4.18351039 0.326991597 4.18351039 7.84377479 0.550141219 7.84377479 0.550141219 0.326991597"></polygon>
        <polygon id="path-5" points="16.1622724 0.532447059 16.1622724 16.4988336 0.21270681 16.4988336 0.21270681 0.532447059 16.1622724 0.532447059"></polygon>
        <polygon id="path-7" points="0 16.4988336 0 0.532447059 15.9496932 0.532447059 15.9496932 16.4988336"></polygon>
        <polygon id="path-9" points="0 152 177.362007 152 177.362007 0.638655462 0 0.638655462"></polygon>
    </defs>
    <g id="Page-1" stroke="none" stroke-width="1" fill="none" fill-rule="evenodd">
        <g id="Mobile-Copy" transform="translate(-12.000000, -570.000000)">
            <g id="Page-1" transform="translate(12.000000, 570.000000)">
                <path d="M65.0752688,94.5210084 L65.0752688,141.631779 C65.5633333,141.562965 66.0577778,141.515814 66.5637061,141.515814 C67.368853,141.515814 68.1497563,141.612664 68.9032258,141.781513 L68.9032258,95.7673048 L65.3578996,95.7673048 L65.0752688,94.5210084 Z" id="Fill-1" fill="#000000"></path>
                <path d="M109.096774,95.7593341 L109.096774,141.781513 C109.783892,141.64179 110.495254,141.567782 111.223204,141.567782 C111.803778,141.567782 112.369039,141.627116 112.924731,141.715799 L112.924731,93.2436975 L112.515778,93.2436975 L111.978588,95.7593341 L109.096774,95.7593341 Z" id="Fill-3" fill="#000000"></path>
                <g id="Group-7" transform="translate(55.505376, 141.142857)" fill="#000000">
                    <path d="M9.35718566,0.328971429 C4.19135771,1.05576134 0.212834409,5.48547563 0.212834409,10.8572067 L21.4790495,10.8572067 C21.4790495,5.78436639 17.9305333,1.54752605 13.1851427,0.479055462 C12.4316731,0.31045042 11.6507699,0.212736134 10.8456229,0.212736134 C10.3396946,0.212736134 9.84525018,0.260635294 9.35718566,0.328971429" id="Fill-5"></path>
                </g>
                <g id="Group-10" transform="translate(100.164875, 141.142857)">
                    <mask id="mask-2" fill="white">
                        <use xlink:href="#path-1"></use>
                    </mask>
                    <g id="Clip-9"></g>
                    <path d="M8.71919283,0.426941176 C3.86598136,1.41302521 0.212834409,5.70798319 0.212834409,10.8574622 L21.4790495,10.8574622 C21.4790495,5.55981513 17.6089849,1.17863866 12.5471498,0.361159664 C11.9914581,0.272386555 11.4261964,0.212991597 10.8456229,0.212991597 C10.1176731,0.212991597 9.40631111,0.28707563 8.71919283,0.426941176" id="Fill-8" fill="#000000" mask="url(#mask-2)"></path>
                </g>
                <g id="Group-13" transform="translate(86.129032, 0.000000)">
                    <mask id="mask-4" fill="white">
                        <use xlink:href="#path-3"></use>
                    </mask>
                    <g id="Clip-12"></g>
                    <path d="M4.18351039,7.84377479 L4.18351039,0.326161345 L0.550141219,0.326161345 L0.550141219,7.80737143 C1.04458566,7.7862958 1.5396681,7.77032941 2.03921649,7.77032941 C2.76014839,7.77032941 3.47342437,7.80034622 4.18351039,7.84377479" id="Fill-11" fill="#000000" mask="url(#mask-4)"></path>
                </g>
                <path d="M172.258065,94.5210084 L172.036096,60.3589602 L138.797758,25.5462185 L118.028674,25.5462185 C118.71377,26.7816395 119.322104,28.0650939 119.853677,29.3888965 L137.157622,29.3888965 L168.208259,61.9101212 L168.418074,94.1770887 C168.817873,94.1156059 169.224069,94.0739769 169.641139,94.0739769 C170.559078,94.0739769 171.437357,94.2366502 172.258065,94.5210084" id="Fill-14" fill="#000000"></path>
                <g id="Group-18" transform="translate(161.412186, 93.243697)">
                    <mask id="mask-6" fill="white">
                        <use xlink:href="#path-5"></use>
                    </mask>
                    <g id="Clip-17"></g>
                    <path d="M10.7976459,0.978228571 C9.97910108,0.694665546 9.10313692,0.532447059 8.1876172,0.532447059 C7.77164588,0.532447059 7.36652043,0.573959664 6.96777491,0.635270588 C3.14364588,1.22474958 0.21270681,4.52276639 0.21270681,8.51564034 C0.21270681,12.924279 3.7829147,16.4988336 8.1876172,16.4988336 C12.5923197,16.4988336 16.1625276,12.924279 16.1625276,8.51564034 C16.1625276,5.02283361 13.9187068,2.06138824 10.7976459,0.978228571" id="Fill-16" fill="#000000" mask="url(#mask-6)"></path>
                </g>
                <path d="M38.542546,25.5462185 L5.32576714,60.3589602 L5.10394265,94.5210084 C5.92475719,94.2366502 6.80246619,94.0739769 7.71980954,94.0739769 C8.13660944,94.0739769 8.54254186,94.1149654 8.94208165,94.1770887 L9.15112086,61.9101212 L40.181618,29.3888965 L56.2341677,29.3888965 C56.7647566,28.0657344 57.3726963,26.7822799 58.0573477,25.5462185 L38.542546,25.5462185 Z" id="Fill-19" fill="#000000"></path>
                <g id="Group-23" transform="translate(0.000000, 93.243697)">
                    <mask id="mask-8" fill="white">
                        <use xlink:href="#path-7"></use>
                    </mask>
                    <g id="Clip-22"></g>
                    <path d="M5.36475412,0.978228571 C2.24369319,2.06138824 -0.000127598566,5.02283361 -0.000127598566,8.51564034 C-0.000127598566,12.924279 3.57008029,16.4988336 7.9747828,16.4988336 C12.3794853,16.4988336 15.9496932,12.924279 15.9496932,8.51564034 C15.9496932,4.52276639 13.0187541,1.22474958 9.19462509,0.635270588 C8.79587957,0.573321008 8.39075412,0.532447059 7.9747828,0.532447059 C7.05926308,0.532447059 6.18329892,0.694665546 5.36475412,0.978228571" id="Fill-21" fill="#000000" mask="url(#mask-8)"></path>
                </g>
                <path d="M106.732254,42.5308962 C106.732254,52.497877 98.6657013,60.5775773 88.7149387,60.5775773 C78.7641761,60.5775773 70.6969871,52.497877 70.6969871,42.5308962 L106.732254,42.5308962 Z M90.4993099,8.37577016 C89.791539,8.33245762 89.0805886,8.30252101 88.3620072,8.30252101 C87.8640875,8.30252101 87.3706192,8.31844474 86.8777868,8.33946406 C74.6561798,8.86494714 64.1025719,15.8242539 58.5046321,25.924994 C57.8229336,27.153669 57.2188165,28.4301152 56.690373,29.7466891 C55.1082221,33.6855829 54.2293907,37.9843529 54.2293907,42.4907684 C54.2293907,45.0118132 54.5021972,47.4704371 55.021738,49.8360663 L65.1327506,94.5524467 L65.413824,95.7983193 L68.948227,95.7983193 L109.01073,95.7983193 L111.883148,95.7983193 L112.41795,93.2868287 L121.432649,50.9787532 C122.12643,48.2666236 122.494624,45.4220085 122.494624,42.4907684 C122.494624,37.9843529 121.615792,33.6855829 120.033641,29.7466891 C119.505198,28.4301152 118.901081,27.153669 118.219382,25.924994 C112.721281,16.0045105 102.443023,9.11590511 90.4993099,8.37577016 L90.4993099,8.37577016 Z" id="Fill-24" fill="#000000"></path>
                <mask id="mask-10" fill="white">
                    <use xlink:href="#path-9"></use>
                </mask>
                <g id="Clip-27"></g>
                <polygon id="Fill-26" fill="#000000" mask="url(#mask-10)" points="89.9569892 52.3697479 93.7849462 52.3697479 93.7849462 48.5378151 89.9569892 48.5378151"></polygon>
                <polygon id="Fill-28" fill="#000000" mask="url(#mask-10)" points="82.3010753 52.3697479 86.1290323 52.3697479 86.1290323 48.5378151 82.3010753 48.5378151"></polygon>
                <polygon id="Fill-29" fill="#000000" mask="url(#mask-10)" points="86.1290323 48.2592089 86.1290323 52.0213334 86.1290323 56.2016807 89.9569892 56.2016807 89.9569892 52.0213334 89.9569892 48.2592089 89.9569892 44.7058824 86.1290323 44.7058824"></polygon>
            </g>
        </g>
    </g>
</svg>