<?xml version="1.0" encoding="UTF-8"?>
<svg width="178px" height="152px" viewBox="0 0 178 152" version="1.1" xmlns="http://www.w3.org/2000/svg" xmlns:xlink="http://www.w3.org/1999/xlink">
    <!-- Generator: Sketch 46.2 (44496) - http://www.bohemiancoding.com/sketch -->
    <title>Page 1</title>
    <desc>Created with Sketch.</desc>
    <defs>
        <polygon id="path-1" points="0 151.673008 177.574459 151.673008 177.574459 0 0 0"></polygon>
    </defs>
    <g id="Page-1" stroke="none" stroke-width="1" fill="none" fill-rule="evenodd">
        <g id="Mobile-Copy" transform="translate(-221.000000, -570.000000)">
            <g id="Page-1" transform="translate(221.000000, 570.000000)">
                <path d="M64.862562,141.145029 C65.3506265,141.076692 65.845071,141.028793 66.3509993,141.028793 C67.1561462,141.028793 67.9370495,141.125869 68.690519,141.295113 L68.690519,95.1739697 L64.862562,95.1739697 L64.862562,141.145029 Z" id="Fill-1" fill="#000000"></path>
                <path d="M108.884386,141.242296 C109.571505,141.103069 110.282229,141.028985 111.010816,141.028985 C111.59139,141.028985 112.15729,141.08838 112.712343,141.177153 L112.712343,95.1735227 L108.884386,95.1735227 L108.884386,141.242296 Z" id="Fill-3" fill="#000000"></path>
                <path d="M64.862562,141.145029 C59.6967341,141.871818 55.7182108,146.301533 55.7182108,151.672625 L76.9844258,151.672625 C76.9844258,146.599785 73.4359097,142.363583 68.690519,141.295113 C67.9370495,141.125869 67.1561462,141.028793 66.3509993,141.028793 C65.845071,141.028793 65.3506265,141.076692 64.862562,141.145029" id="Fill-5" fill="#000000"></path>
                <path d="M108.884386,141.242296 C104.031175,142.229018 100.37739,146.523976 100.37739,151.672817 L121.644243,151.672817 C121.644243,146.375808 117.774178,141.994632 112.712343,141.177153 C112.15729,141.08838 111.59139,141.028985 111.010816,141.028985 C110.282229,141.028985 109.571505,141.103069 108.884386,141.242296" id="Fill-7" fill="#000000"></path>
                <mask id="mask-2" fill="white">
                    <use xlink:href="#path-1"></use>
                </mask>
                <g id="Clip-10"></g>
                <polygon id="Fill-9" fill="#000000" mask="url(#mask-2)" points="86.6789821 17.194521 90.3123513 17.194521 90.3123513 -0.000638655462 86.6789821 -0.000638655462"></polygon>
                <path d="M68.2933047,64.0711933 L106.998416,64.0711933 L106.998416,49.1688067 L68.2933047,49.1688067 L68.2933047,64.0711933 Z M115.051161,25.1132101 L126.776194,25.1132101 L126.776194,17.194521 L90.3123513,17.194521 L86.6789821,17.194521 L48.860043,17.194521 L48.860043,25.1132101 L62.5232975,25.1132101 L62.5232975,28.9451429 L48.860043,28.9451429 L48.860043,95.1737143 L64.8628172,95.1737143 L68.6907742,95.1737143 L108.884323,95.1737143 L112.71228,95.1737143 L126.776194,95.1737143 L126.776194,28.9451429 L115.051161,28.9451429 L115.051161,25.1132101 Z" id="Fill-11" fill="#000000" mask="url(#mask-2)"></path>
                <polygon id="Fill-12" fill="#000000" mask="url(#mask-2)" points="79.3522724 58.5359664 95.940086 58.5359664 95.940086 54.7040336 79.3522724 54.7040336"></polygon>
                <path d="M172.210151,93.8951261 L171.988768,59.828605 L138.838022,25.1132101 L126.77613,25.1132101 L115.051097,25.1132101 L115.051097,28.9451429 L126.77613,28.9451429 L137.202209,28.9451429 L168.171019,61.3754286 L168.379642,93.5521681 C168.778388,93.4902185 169.184151,93.4493445 169.599485,93.4493445 C170.515642,93.4493445 171.390968,93.6109244 172.210151,93.8951261" id="Fill-13" fill="#000000" mask="url(#mask-2)"></path>
                <path d="M172.210151,93.8951261 C171.390968,93.6109244 170.515642,93.4493445 169.599485,93.4493445 C169.184151,93.4493445 168.778388,93.4902185 168.379642,93.5521681 C164.556151,94.1410084 161.624574,97.4396639 161.624574,101.432538 C161.624574,105.841176 165.19542,109.415731 169.599485,109.415731 C174.004825,109.415731 177.574395,105.841176 177.574395,101.432538 C177.574395,97.9397311 175.330574,94.9782857 172.210151,93.8951261" id="Fill-14" fill="#000000" mask="url(#mask-2)"></path>
                <path d="M62.5233613,25.1130185 L48.8601068,25.1130185 L38.7364366,25.1130185 L5.58569104,59.8284134 L5.36494552,93.8949345 C6.18349032,93.6107328 7.05945448,93.4491529 7.97497419,93.4491529 C8.39094552,93.4491529 8.79607097,93.4900269 9.19481649,93.5519765 L9.40407814,61.375237 L40.3728882,28.9449513 L48.8601068,28.9449513 L62.5233613,28.9449513 L62.5233613,25.1130185 Z" id="Fill-15" fill="#000000" mask="url(#mask-2)"></path>
                <path d="M5.36475412,93.8951261 C2.24369319,94.9782857 -0.000127598566,97.9397311 -0.000127598566,101.432538 C-0.000127598566,105.841176 3.57008029,109.415731 7.9747828,109.415731 C12.3794853,109.415731 15.9496932,105.841176 15.9496932,101.432538 C15.9496932,97.4396639 13.0187541,94.1410084 9.19462509,93.5521681 C8.79587957,93.4902185 8.39075412,93.4493445 7.9747828,93.4493445 C7.05926308,93.4493445 6.18329892,93.6109244 5.36475412,93.8951261" id="Fill-16" fill="#000000" mask="url(#mask-2)"></path>
            </g>
        </g>
    </g>
</svg>