<?xml version="1.0" encoding="UTF-8"?>
<svg width="178px" height="153px" viewBox="0 0 178 153" version="1.1" xmlns="http://www.w3.org/2000/svg" xmlns:xlink="http://www.w3.org/1999/xlink">
    <!-- Generator: Sketch 46.2 (44496) - http://www.bohemiancoding.com/sketch -->
    <title>Page 1</title>
    <desc>Created with Sketch.</desc>
    <defs>
        <polygon id="path-1" points="16.1622724 0.533707531 16.1622724 16.5378916 0.212834409 16.5378916 0.212834409 0.533707531 16.1622724 0.533707531"></polygon>
        <polygon id="path-3" points="-2.71050543e-20 111.922829 -2.71050543e-20 0.390502092 177.574459 0.390502092 177.574459 152.359833 -2.71050543e-20 152.359833 -2.71050543e-20 111.922829 15.949757 111.922829 15.949757 95.9186448 -6.37992832e-05 95.9186448 -6.37992832e-05 111.922829"></polygon>
    </defs>
    <g id="Page-1" stroke="none" stroke-width="1" fill="none" fill-rule="evenodd">
        <g id="Mobile-Copy" transform="translate(-430.000000, -570.000000)">
            <g id="Page-1" transform="translate(430.000000, 570.000000)">
                <path d="M88.0883082,65.7139481 C80.0342867,65.7139481 73.5057061,59.1637556 73.5057061,51.0822828 C73.5057061,43.00081 80.0342867,36.4493372 88.0883082,36.4493372 C96.1423297,36.4493372 102.67091,43.00081 102.67091,51.0822828 C102.67091,59.1637556 96.1423297,65.7139481 88.0883082,65.7139481 L88.0883082,65.7139481 Z M115.051161,27.670082 L124.183391,27.670082 L119.797828,17.0362619 L90.1005376,17.0362619 L90.1005376,18.4241448 L86.4671685,18.4241448 L86.4671685,17.0362619 L55.6795484,17.0362619 L51.4502939,27.670082 L62.5232975,27.670082 L62.5232975,31.5110862 L49.9229391,31.5110862 L24.2028961,96.1891155 L65.50081,96.1891155 L65.50081,93.1803289 L69.328767,93.1803289 L69.328767,96.1891155 L109.522315,96.1891155 L109.522315,93.4517598 L113.350272,93.4517598 L113.350272,96.1891155 L152.439455,96.1891155 L125.767527,31.5110862 L115.051161,31.5110862 L115.051161,27.670082 Z" id="Fill-1" fill="#000000"></path>
                <path d="M65.5006186,93.1805209 L65.5006186,96.1893075 L65.5006186,142.056659 C65.9886832,141.987521 66.4824896,141.940149 66.9890559,141.940149 C67.7942029,141.940149 68.5751061,142.037454 69.3285756,142.207738 L69.3285756,96.1893075 L69.3285756,93.1805209 L65.5006186,93.1805209 Z" id="Fill-3" fill="#000000"></path>
                <path d="M109.522124,93.4518238 L109.522124,96.1891795 L109.522124,142.153836 C110.209242,142.01364 110.919966,141.940021 111.648554,141.940021 C112.229128,141.940021 112.795027,141.998916 113.350081,142.089179 L113.350081,96.1891795 L113.350081,93.4518238 L109.522124,93.4518238 Z" id="Fill-5" fill="#000000"></path>
                <path d="M65.5006186,142.056403 C60.3347907,142.784913 56.3562674,147.225114 56.3562674,152.608922 L77.6224824,152.608922 C77.6224824,147.524072 74.0739663,143.277842 69.3285756,142.207482 C68.5751061,142.037838 67.7942029,141.939892 66.9890559,141.939892 C66.4824896,141.939892 65.9886832,141.987905 65.5006186,142.056403" id="Fill-7" fill="#000000"></path>
                <path d="M109.522124,142.153964 C104.668913,143.143023 101.015766,147.448149 101.015766,152.609178 L122.281981,152.609178 C122.281981,147.29899 118.411916,142.908082 113.350081,142.088667 C112.795027,141.999044 112.229128,141.940149 111.648554,141.940149 C110.919966,141.940149 110.209242,142.013768 109.522124,142.153964" id="Fill-9" fill="#000000"></path>
                <path d="M172.20996,96.615787 L171.988576,62.4679795 L138.837831,27.6704021 L124.183135,27.6704021 L115.051544,27.6704021 L115.051544,31.5114063 L125.767272,31.5114063 L137.202017,31.5114063 L168.170827,64.0184649 L168.380089,96.271377 C168.778834,96.2092808 169.18396,96.16831 169.599931,96.16831 C170.515451,96.16831 171.391415,96.3309126 172.20996,96.615787" id="Fill-11" fill="#000000"></path>
                <g id="Group-15" transform="translate(161.412186, 95.634603)">
                    <mask id="mask-2" fill="white">
                        <use xlink:href="#path-1"></use>
                    </mask>
                    <g id="Clip-14"></g>
                    <path d="M10.7977735,0.981184519 C9.97922867,0.696310042 9.10326452,0.533707531 8.1877448,0.533707531 C7.77177348,0.533707531 7.36664803,0.574678243 6.96790251,0.636774477 C3.14377348,1.22764895 0.212834409,4.53347322 0.212834409,8.53579958 C0.212834409,12.9548749 3.78304229,16.5378916 8.1877448,16.5378916 C12.5924473,16.5378916 16.1626552,12.9548749 16.1626552,8.53579958 C16.1626552,5.03472427 13.9188344,2.0662682 10.7977735,0.981184519" id="Fill-13" fill="#000000" mask="url(#mask-2)"></path>
                </g>
                <polygon id="Fill-16" fill="#000000" points="80.6280667 55.1936937 83.178124 58.0584427 88.432633 53.3480912 85.5597513 50.7733381"></polygon>
                <polygon id="Fill-18" fill="#000000" points="95.5489326 46.9697197 92.9988753 44.1049707 88.4327606 48.1982008 91.3056423 50.772954"></polygon>
                <polygon id="Fill-20" fill="#000000" points="90.100729 18.4240808 90.100729 17.0361979 90.100729 0.640231381 86.4673599 0.640231381 86.4673599 17.0361979 86.4673599 18.4240808"></polygon>
                <path d="M62.5234251,27.6702741 L51.4504215,27.6702741 L38.7365004,27.6702741 L5.58575484,62.4678515 L5.36500932,96.615659 C6.18355412,96.3307845 7.05951828,96.168182 7.97503799,96.168182 C8.39100932,96.168182 8.79613477,96.2091527 9.19488029,96.271249 L9.40414194,64.0183368 L40.372952,31.5112782 L49.9230667,31.5112782 L62.5234251,31.5112782 L62.5234251,27.6702741 Z" id="Fill-22" fill="#000000"></path>
                <g id="Group-26" transform="translate(0.000000, 0.249665)">
                    <mask id="mask-4" fill="white">
                        <use xlink:href="#path-3"></use>
                    </mask>
                    <g id="Clip-25"></g>
                </g>
                <polygon id="Fill-27" fill="#000000" points="88.4328882 48.1981368 83.3908308 43.6779151 80.8407735 46.542664 85.5600065 50.77289 88.4328882 53.3482833 93.2114545 57.6316431 95.7615118 54.7675343 91.3057699 50.77289"></polygon>
                <path d="M5.36481792,96.615787 C2.24375699,97.7008707 -6.37992832e-05,100.669327 -6.37992832e-05,104.170402 C-6.37992832e-05,108.589477 3.57014409,112.172494 7.97484659,112.172494 C12.3795491,112.172494 15.949757,108.589477 15.949757,104.170402 C15.949757,100.168076 13.0188179,96.8622515 9.19468889,96.271377 C8.79594337,96.2092808 8.39081792,96.16831 7.97484659,96.16831 C7.05932688,96.16831 6.18336272,96.3309126 5.36481792,96.615787" id="Fill-24" fill="#000000"></path>
            </g>
        </g>
    </g>
</svg>