
<svg width="140px" height="145px" viewBox="0 0 140 145" version="1.1" xmlns="http://www.w3.org/2000/svg" xmlns:xlink="http://www.w3.org/1999/xlink">
    <!-- Generator: Sketch 46.2 (44496) - http://www.bohemiancoding.com/sketch -->
    <desc>Created with Sketch.</desc>
    <defs></defs>
    <g id="Page-1" stroke="none" stroke-width="1" fill="none" fill-rule="evenodd">
        <g id="Mobile" transform="translate(-30.000000, -572.000000)" fill="#000000">
            <path d="M156.486,639 L169.444,639 L169.444,635.5 L156.486,635.5 L156.486,639 Z M156.444,627.5 L169.402,627.5 L169.402,624 L156.444,624 L156.444,627.5 Z M145.111,671.834 C141.429,671.834 138.444,668.848 138.444,665.167 C138.444,661.485 141.429,658.5 145.111,658.5 C148.792,658.5 151.777,661.485 151.777,665.167 C151.777,668.848 148.792,671.834 145.111,671.834 L145.111,671.834 Z M64.452,677.416 C65.201,676.381 65.95,675.348 66.832,674.131 C88.764,687.559 110.638,689.445 132.711,674.045 C133.643,675.281 134.349,676.217 135.049,677.145 C116.665,693.414 86.447,692.87 64.452,677.416 L64.452,677.416 Z M54.611,671.834 C50.929,671.834 47.944,668.848 47.944,665.167 C47.944,661.485 50.929,658.5 54.611,658.5 C58.292,658.5 61.277,661.485 61.277,665.167 C61.277,668.848 58.292,671.834 54.611,671.834 L54.611,671.834 Z M76.51,624 C82.222,624 86.852,628.631 86.852,634.342 C86.852,640.053 82.222,644.684 76.51,644.684 C70.799,644.684 66.168,640.053 66.168,634.342 C66.168,628.631 70.799,624 76.51,624 L76.51,624 Z M66.968,615.01 L85.904,615.01 L85.904,612.163 L66.968,612.163 L66.968,615.01 Z M122.81,624 C128.522,624 133.152,628.631 133.152,634.342 C133.152,640.053 128.522,644.684 122.81,644.684 C117.098,644.684 112.468,640.053 112.468,634.342 C112.468,628.631 117.098,624 122.81,624 L122.81,624 Z M112.968,615.01 L131.904,615.01 L131.904,612.163 L112.968,612.163 L112.968,615.01 Z M145,572 L54.5,572 L30,595.5 L30,624 L42.423,624 L42.423,627.5 L30,627.5 L30,635.5 L42.465,635.5 L42.465,639 L30,639 L30,693 L54.5,716.5 L145,716.5 L169.5,693 L169.5,595.5 L145,572 Z" id="Page-1"></path>
        </g>
    </g>
</svg>