<?xml version="1.0" encoding="UTF-8"?>
<svg width="140px" height="145px" viewBox="0 0 140 145" version="1.1" xmlns="http://www.w3.org/2000/svg" xmlns:xlink="http://www.w3.org/1999/xlink">
    <!-- Generator: Sketch 46.2 (44496) - http://www.bohemiancoding.com/sketch -->
    <title>Page 1</title>
    <desc>Created with Sketch.</desc>
    <defs></defs>
    <g id="Page-1" stroke="none" stroke-width="1" fill="none" fill-rule="evenodd">
        <g id="Mobile" transform="translate(-240.000000, -572.000000)" fill="#000000">
            <path d="M366.486,639 L379.444,639 L379.444,635.5 L366.486,635.5 L366.486,639 Z M366.444,627.5 L379.402,627.5 L379.402,624 L366.444,624 L366.444,627.5 Z M342.711,689.177 C320.638,673.777 298.764,675.662 276.832,689.091 C275.95,687.873 275.201,686.84 274.452,685.805 C296.447,670.352 326.665,669.808 345.049,686.077 C344.349,687.005 343.643,687.941 342.711,689.177 L342.711,689.177 Z M286.51,624 C292.222,624 296.852,628.63 296.852,634.342 C296.852,640.054 292.222,644.684 286.51,644.684 C280.799,644.684 276.168,640.054 276.168,634.342 C276.168,628.63 280.799,624 286.51,624 L286.51,624 Z M276.968,615.009 L295.904,615.009 L295.904,612.162 L276.968,612.162 L276.968,615.009 Z M332.81,624 C338.522,624 343.152,628.63 343.152,634.342 C343.152,640.054 338.522,644.684 332.81,644.684 C327.098,644.684 322.468,640.054 322.468,634.342 C322.468,628.63 327.098,624 332.81,624 L332.81,624 Z M322.968,615.009 L341.904,615.009 L341.904,612.162 L322.968,612.162 L322.968,615.009 Z M355,572 L264.5,572 L240,595.5 L240,624 L252.423,624 L252.423,627.5 L240,627.5 L240,635.5 L252.465,635.5 L252.465,639 L240,639 L240,693 L264.5,716.5 L355,716.5 L379.5,693 L379.5,595.5 L355,572 Z" id="Page-1"></path>
        </g>
    </g>
</svg>