<?xml version="1.0" encoding="UTF-8"?>
<svg width="174px" height="143px" viewBox="0 0 174 143" version="1.1" xmlns="http://www.w3.org/2000/svg" xmlns:xlink="http://www.w3.org/1999/xlink">
    <!-- Generator: Sketch 46.2 (44496) - http://www.bohemiancoding.com/sketch -->
    <title>Page 1</title>
    <desc>Created with Sketch.</desc>
    <defs></defs>
    <g id="Page-1" stroke="none" stroke-width="1" fill="none" fill-rule="evenodd">
        <g id="Mobile-Copy-2" transform="translate(-223.000000, -575.000000)" stroke-width="3" stroke="#000000" fill="#FFFFFF">
            <g id="Page-1" transform="translate(225.000000, 577.000000)">
                <g id="Group-3">
                    <path d="M33.7150838,117.10274 C27.7081901,117.10274 22.7932961,122.028816 22.7932961,128.05137 C22.7932961,134.073027 27.7081901,139 33.7150838,139 C39.7219775,139 44.6368715,134.255175 44.6368715,128.05137 C44.6368715,122.028816 39.7219775,117.10274 33.7150838,117.10274" id="Fill-1"></path>
                    <path d="M152.806218,82.493889 C152.982383,84.1147159 153.167358,85.7355428 153.167358,87.3563697 C153.167358,103.750635 139.910881,117.257526 123.43057,117.257526 C115.54715,117.257526 108.02487,114.015872 102.466839,108.435976 C95.3056995,115.822696 85.6341969,119.958904 75.0642487,119.958904 C62.6974093,119.958904 51.4139896,114.193012 44.0678756,104.46805 C40.6678756,105.734598 37.0829016,106.452013 33.4979275,106.452013 C17.2025907,106.452013 3.76994819,93.1222621 3.76994819,76.5508571 C3.76994819,71.3252403 5.02072539,66.4627596 7.53108808,61.963415 C2.69533679,56.5606587 0,49.5370755 0,42.1503562 C0,25.7560908 13.2564767,12.2492 29.7367876,12.2492 C31.1725389,12.2492 32.784456,12.4263395 34.3963731,12.6034791 C42.2797927,6.30616802 52.1274611,2.70137816 62.3450777,2.70137816 C69.8673575,2.70137816 77.2134715,4.68534113 83.6611399,8.28127402 C90.4690674,2.87851771 98.8818653,0 107.663731,0 C124.144041,0 138.651295,10.6283731 144.024352,25.9332303 C158.71658,27.7400537 170,40.3435328 170,55.657247 C170,67.3661713 163.191192,77.8085479 152.806218,82.493889" id="Fill-3"></path>
                </g>
            </g>
        </g>
    </g>
</svg>