<?xml version="1.0" encoding="UTF-8"?>
<svg width="156px" height="145px" viewBox="0 0 156 145" version="1.1" xmlns="http://www.w3.org/2000/svg" xmlns:xlink="http://www.w3.org/1999/xlink">
    <!-- Generator: Sketch 46.2 (44496) - http://www.bohemiancoding.com/sketch -->
    <title>Page 1</title>
    <desc>Created with Sketch.</desc>
    <defs></defs>
    <g id="Page-1" stroke="none" stroke-width="1" fill="none" fill-rule="evenodd">
        <g id="Mobile-Copy-2" transform="translate(-444.000000, -577.000000)" stroke-width="3" stroke="#171A21" fill="#FFFFFF">
            <polygon id="Page-1" points="546.119637 580 524.78218 589.027091 506.727999 580 498.522549 593.540636 467.337457 580 467.337457 602.567726 449.283276 613.100062 464.054181 629.648998 449.283276 641.68658 462.414187 647.703179 446 665.75736 459.130911 685.316787 447.64109 715.407454 485.391638 703.370968 491.955998 718.415754 511.652364 701.866818 524.78218 712.398059 534.629816 700.361573 547.761822 706.379268 555.967272 691.334482 592.075634 716.911604 575.663639 677.793846 590.434544 667.262606 585.511274 649.208425 597 638.676089 577.303633 631.154244 597 611.594817 574.021453 605.577122 580.586909 581.50415 554.326182 590.532336"></polygon>
        </g>
    </g>
</svg>